<svg width="65" height="65" viewBox="0 0 65 65" fill="none" xmlns="http://www.w3.org/2000/svg">
<path d="M37.875 5.8125C37.875 4.46984 37.3416 3.18217 36.3922 2.23277C35.4428 1.28337 34.1552 0.75 32.8125 0.75C31.4698 0.75 30.1822 1.28337 29.2328 2.23277C28.2834 3.18217 27.75 4.46984 27.75 5.8125V27.75H5.8125C4.46984 27.75 3.18217 28.2834 2.23277 29.2328C1.28337 30.1822 0.75 31.4698 0.75 32.8125C0.75 34.1552 1.28337 35.4428 2.23277 36.3922C3.18217 37.3416 4.46984 37.875 5.8125 37.875H27.75V59.8125C27.75 61.1552 28.2834 62.4428 29.2328 63.3922C30.1822 64.3416 31.4698 64.875 32.8125 64.875C34.1552 64.875 35.4428 64.3416 36.3922 63.3922C37.3416 62.4428 37.875 61.1552 37.875 59.8125V37.875H59.8125C61.1552 37.875 62.4428 37.3416 63.3922 36.3922C64.3416 35.4428 64.875 34.1552 64.875 32.8125C64.875 31.4698 64.3416 30.1822 63.3922 29.2328C62.4428 28.2834 61.1552 27.75 59.8125 27.75H37.875V5.8125Z" fill="white"/>
</svg>
