<svg width="59" height="79" viewBox="0 0 59 79" fill="none" xmlns="http://www.w3.org/2000/svg">
<path d="M17.3857 75.9999H41.6143C43.4854 76.0009 45.2906 75.2987 46.6817 74.0287C48.0729 72.7588 48.9514 71.011 49.1479 69.1225L56 3H3L9.81429 69.1225C10.0114 71.0176 10.8953 72.7708 12.2945 74.0416C13.6936 75.3125 15.5081 76.0104 17.3857 75.9999Z" fill="#5FCBDF" stroke="#5FCBDF" stroke-width="6" stroke-linecap="round" stroke-linejoin="round"/>
<path d="M31.0416 24.3959C31.0416 23.7826 30.7979 23.1944 30.3643 22.7607C29.9306 22.327 29.3424 22.0834 28.7291 22.0834C28.1158 22.0834 27.5276 22.327 27.0939 22.7607C26.6602 23.1944 26.4166 23.7826 26.4166 24.3959V34.4167H16.3958C15.7824 34.4167 15.1942 34.6603 14.7606 35.094C14.3269 35.5277 14.0833 36.1159 14.0833 36.7292C14.0833 37.3425 14.3269 37.9307 14.7606 38.3644C15.1942 38.7981 15.7824 39.0417 16.3958 39.0417H26.4166V49.0625C26.4166 49.6759 26.6602 50.264 27.0939 50.6977C27.5276 51.1314 28.1158 51.375 28.7291 51.375C29.3424 51.375 29.9306 51.1314 30.3643 50.6977C30.7979 50.264 31.0416 49.6759 31.0416 49.0625V39.0417H41.0624C41.6757 39.0417 42.2639 38.7981 42.6976 38.3644C43.1313 37.9307 43.3749 37.3425 43.3749 36.7292C43.3749 36.1159 43.1313 35.5277 42.6976 35.094C42.2639 34.6603 41.6757 34.4167 41.0624 34.4167H31.0416V24.3959Z" fill="white"/>
</svg>
