<svg width="15" height="25" viewBox="0 0 15 25" fill="none" xmlns="http://www.w3.org/2000/svg">
<path fill-rule="evenodd" clip-rule="evenodd" d="M0.732019 24.2671C0.263308 23.7977 0 23.1611 0 22.4974C0 21.8337 0.263308 21.1971 0.732019 20.7277L8.96511 12.4849L0.732019 4.24208C0.276591 3.76999 0.0245861 3.13769 0.0302825 2.48138C0.035979 1.82507 0.298921 1.19725 0.762474 0.73315C1.22603 0.26905 1.8531 0.0057978 2.50864 9.46245e-05C3.16418 -0.00560855 3.79573 0.246694 4.26727 0.702659L14.268 10.7152C14.7367 11.1846 15 11.8211 15 12.4849C15 13.1486 14.7367 13.7852 14.268 14.2546L4.26727 24.2671C3.79842 24.7364 3.1626 25 2.49964 25C1.83669 25 1.20087 24.7364 0.732019 24.2671Z" fill="#708E8C"/>
</svg>
